<svg width="732" height="262" viewBox="0 0 732 262" fill="none" xmlns="http://www.w3.org/2000/svg">
<g clip-path="url(#clip0_24_2)">
<path d="M262.009 81.0403C258.892 77.9233 230.825 62.3528 202.709 90.469L180.841 112.337C173.949 119.229 173.936 130.424 180.813 137.301L187.047 143.535L162.054 168.527C158.598 171.983 158.592 177.561 162.04 181.009C165.488 184.457 171.066 184.451 174.522 180.995L199.514 156.003L221.382 134.134L261.995 93.5222C265.451 90.0662 265.457 84.4884 262.009 81.0403ZM190.312 15.5918C191.913 13.9907 192.053 11.4747 190.631 9.7015C189.209 7.92835 186.733 7.5606 184.84 8.75243L152.324 29.4625C150.821 30.4198 149.435 31.533 148.186 32.7827C139.224 41.7447 138.701 55.9434 146.647 65.4908L102.833 109.305C99.3767 112.761 99.3704 118.339 102.819 121.787C106.267 125.235 111.844 125.229 115.3 121.773L159.115 77.9586C168.662 85.9049 182.861 85.3817 191.823 76.4197C193.073 75.1701 194.186 73.7841 195.143 72.2813L215.853 39.7659C217.065 37.8533 216.638 35.3574 214.885 33.9551C213.131 32.5529 210.615 32.6923 209.014 34.2934L182.811 60.496C181.757 61.5504 180.041 61.5524 178.989 60.5004C177.995 59.5069 177.938 57.9272 178.837 56.834L203.034 27.7667C204.518 26.0097 204.404 23.4354 202.787 21.8185C201.17 20.2016 198.596 20.0875 196.839 21.5717L167.791 45.7884C166.698 46.6867 165.118 46.63 164.125 45.6365C163.073 44.5845 163.075 42.8683 164.129 41.8139L190.332 15.6112L190.312 15.5918ZM170.043 54.6792L169.985 54.6207L169.926 54.5623L170.122 54.484L170.043 54.6792Z" fill="#333333"/>
<rect y="62" width="200" height="200" rx="50" fill="#333333"/>
<rect x="25" y="87" width="150" height="150" rx="50" fill="#FAFAFA"/>
<rect x="50" y="112" width="100" height="100" rx="50" fill="#333333"/>
<rect x="141" y="100" width="12" height="12" rx="6" fill="#333333"/>
<path d="M155.546 177.063C155.546 184.761 147.212 189.572 140.546 185.723L113.838 170.303C107.171 166.454 107.171 156.832 113.838 152.983L140.546 137.563C147.212 133.714 155.546 138.525 155.546 146.223L155.546 177.063Z" fill="#FAFAFA"/>
<path d="M266.72 143.2V157.2H285.52V166.08H266.72V180.88H287.92V190H255.52V134.08H287.92V143.2H266.72ZM295.218 167.68C295.218 163.2 296.098 159.227 297.858 155.76C299.671 152.293 302.098 149.627 305.138 147.76C308.231 145.893 311.671 144.96 315.458 144.96C318.765 144.96 321.645 145.627 324.098 146.96C326.605 148.293 328.605 149.973 330.098 152V145.68H341.378V190H330.098V183.52C328.658 185.6 326.658 187.333 324.098 188.72C321.591 190.053 318.685 190.72 315.378 190.72C311.645 190.72 308.231 189.76 305.138 187.84C302.098 185.92 299.671 183.227 297.858 179.76C296.098 176.24 295.218 172.213 295.218 167.68ZM330.098 167.84C330.098 165.12 329.565 162.8 328.498 160.88C327.431 158.907 325.991 157.413 324.178 156.4C322.365 155.333 320.418 154.8 318.338 154.8C316.258 154.8 314.338 155.307 312.578 156.32C310.818 157.333 309.378 158.827 308.258 160.8C307.191 162.72 306.658 165.013 306.658 167.68C306.658 170.347 307.191 172.693 308.258 174.72C309.378 176.693 310.818 178.213 312.578 179.28C314.391 180.347 316.311 180.88 318.338 180.88C320.418 180.88 322.365 180.373 324.178 179.36C325.991 178.293 327.431 176.8 328.498 174.88C329.565 172.907 330.098 170.56 330.098 167.84ZM365.357 154.88V176.32C365.357 177.813 365.704 178.907 366.397 179.6C367.144 180.24 368.37 180.56 370.077 180.56H375.277V190H368.237C358.797 190 354.077 185.413 354.077 176.24V154.88H348.797V145.68H354.077V134.72H365.357V145.68H375.277V154.88H365.357ZM400.293 190.72C396.666 190.72 393.413 190.08 390.533 188.8C387.653 187.467 385.359 185.68 383.653 183.44C381.999 181.2 381.093 178.72 380.933 176H392.213C392.426 177.707 393.253 179.12 394.693 180.24C396.186 181.36 398.026 181.92 400.213 181.92C402.346 181.92 403.999 181.493 405.173 180.64C406.399 179.787 407.013 178.693 407.013 177.36C407.013 175.92 406.266 174.853 404.773 174.16C403.333 173.413 401.013 172.613 397.812 171.76C394.506 170.96 391.786 170.133 389.653 169.28C387.573 168.427 385.759 167.12 384.213 165.36C382.719 163.6 381.973 161.227 381.973 158.24C381.973 155.787 382.666 153.547 384.053 151.52C385.493 149.493 387.519 147.893 390.133 146.72C392.799 145.547 395.919 144.96 399.493 144.96C404.773 144.96 408.986 146.293 412.133 148.96C415.279 151.573 417.013 155.12 417.333 159.6H406.613C406.453 157.84 405.706 156.453 404.373 155.44C403.093 154.373 401.359 153.84 399.173 153.84C397.146 153.84 395.573 154.213 394.453 154.96C393.386 155.707 392.853 156.747 392.853 158.08C392.853 159.573 393.599 160.72 395.093 161.52C396.586 162.267 398.906 163.04 402.053 163.84C405.253 164.64 407.893 165.467 409.973 166.32C412.053 167.173 413.839 168.507 415.333 170.32C416.879 172.08 417.679 174.427 417.733 177.36C417.733 179.92 417.013 182.213 415.573 184.24C414.186 186.267 412.159 187.867 409.493 189.04C406.879 190.16 403.813 190.72 400.293 190.72ZM439.966 154.88V176.32C439.966 177.813 440.313 178.907 441.006 179.6C441.753 180.24 442.98 180.56 444.686 180.56H449.886V190H442.846C433.406 190 428.686 185.413 428.686 176.24V154.88H423.406V145.68H428.686V134.72H439.966V145.68H449.886V154.88H439.966ZM455.062 167.68C455.062 163.2 455.942 159.227 457.702 155.76C459.515 152.293 461.942 149.627 464.982 147.76C468.075 145.893 471.515 144.96 475.302 144.96C478.609 144.96 481.489 145.627 483.942 146.96C486.449 148.293 488.449 149.973 489.942 152V145.68H501.222V190H489.942V183.52C488.502 185.6 486.502 187.333 483.942 188.72C481.435 190.053 478.529 190.72 475.222 190.72C471.489 190.72 468.075 189.76 464.982 187.84C461.942 185.92 459.515 183.227 457.702 179.76C455.942 176.24 455.062 172.213 455.062 167.68ZM489.942 167.84C489.942 165.12 489.409 162.8 488.342 160.88C487.275 158.907 485.835 157.413 484.022 156.4C482.209 155.333 480.262 154.8 478.182 154.8C476.102 154.8 474.182 155.307 472.422 156.32C470.662 157.333 469.222 158.827 468.102 160.8C467.035 162.72 466.502 165.013 466.502 167.68C466.502 170.347 467.035 172.693 468.102 174.72C469.222 176.693 470.662 178.213 472.422 179.28C474.235 180.347 476.155 180.88 478.182 180.88C480.262 180.88 482.209 180.373 484.022 179.36C485.835 178.293 487.275 176.8 488.342 174.88C489.409 172.907 489.942 170.56 489.942 167.84ZM529.521 144.96C532.827 144.96 535.734 145.627 538.241 146.96C540.747 148.24 542.721 149.92 544.161 152V145.68H555.441V190.32C555.441 194.427 554.614 198.08 552.961 201.28C551.307 204.533 548.827 207.093 545.521 208.96C542.214 210.88 538.214 211.84 533.521 211.84C527.227 211.84 522.054 210.373 518.001 207.44C514.001 204.507 511.734 200.507 511.201 195.44H522.321C522.907 197.467 524.161 199.067 526.081 200.24C528.054 201.467 530.427 202.08 533.201 202.08C536.454 202.08 539.094 201.093 541.121 199.12C543.147 197.2 544.161 194.267 544.161 190.32V183.44C542.721 185.52 540.721 187.253 538.161 188.64C535.654 190.027 532.774 190.72 529.521 190.72C525.787 190.72 522.374 189.76 519.281 187.84C516.187 185.92 513.734 183.227 511.921 179.76C510.161 176.24 509.281 172.213 509.281 167.68C509.281 163.2 510.161 159.227 511.921 155.76C513.734 152.293 516.161 149.627 519.201 147.76C522.294 145.893 525.734 144.96 529.521 144.96ZM544.161 167.84C544.161 165.12 543.627 162.8 542.561 160.88C541.494 158.907 540.054 157.413 538.241 156.4C536.427 155.333 534.481 154.8 532.401 154.8C530.321 154.8 528.401 155.307 526.641 156.32C524.881 157.333 523.441 158.827 522.321 160.8C521.254 162.72 520.721 165.013 520.721 167.68C520.721 170.347 521.254 172.693 522.321 174.72C523.441 176.693 524.881 178.213 526.641 179.28C528.454 180.347 530.374 180.88 532.401 180.88C534.481 180.88 536.427 180.373 538.241 179.36C540.054 178.293 541.494 176.8 542.561 174.88C543.627 172.907 544.161 170.56 544.161 167.84ZM577.579 152.56C579.019 150.213 580.886 148.373 583.179 147.04C585.526 145.707 588.193 145.04 591.179 145.04V156.8H588.219C584.699 156.8 582.033 157.627 580.219 159.28C578.459 160.933 577.579 163.813 577.579 167.92V190H566.379V145.68H577.579V152.56ZM595.843 167.68C595.843 163.2 596.723 159.227 598.483 155.76C600.296 152.293 602.723 149.627 605.763 147.76C608.856 145.893 612.296 144.96 616.083 144.96C619.39 144.96 622.27 145.627 624.723 146.96C627.23 148.293 629.23 149.973 630.723 152V145.68H642.003V190H630.723V183.52C629.283 185.6 627.283 187.333 624.723 188.72C622.216 190.053 619.31 190.72 616.003 190.72C612.27 190.72 608.856 189.76 605.763 187.84C602.723 185.92 600.296 183.227 598.483 179.76C596.723 176.24 595.843 172.213 595.843 167.68ZM630.723 167.84C630.723 165.12 630.19 162.8 629.123 160.88C628.056 158.907 626.616 157.413 624.803 156.4C622.99 155.333 621.043 154.8 618.963 154.8C616.883 154.8 614.963 155.307 613.203 156.32C611.443 157.333 610.003 158.827 608.883 160.8C607.816 162.72 607.283 165.013 607.283 167.68C607.283 170.347 607.816 172.693 608.883 174.72C610.003 176.693 611.443 178.213 613.203 179.28C615.016 180.347 616.936 180.88 618.963 180.88C621.043 180.88 622.99 180.373 624.803 179.36C626.616 178.293 628.056 176.8 629.123 174.88C630.19 172.907 630.723 170.56 630.723 167.84ZM707.982 145.04C713.422 145.04 717.795 146.72 721.102 150.08C724.462 153.387 726.142 158.027 726.142 164V190H714.942V165.52C714.942 162.053 714.062 159.413 712.302 157.6C710.542 155.733 708.142 154.8 705.102 154.8C702.062 154.8 699.635 155.733 697.822 157.6C696.062 159.413 695.182 162.053 695.182 165.52V190H683.982V165.52C683.982 162.053 683.102 159.413 681.342 157.6C679.582 155.733 677.182 154.8 674.142 154.8C671.049 154.8 668.595 155.733 666.782 157.6C665.022 159.413 664.142 162.053 664.142 165.52V190H652.942V145.68H664.142V151.04C665.582 149.173 667.422 147.707 669.662 146.64C671.955 145.573 674.462 145.04 677.182 145.04C680.649 145.04 683.742 145.787 686.462 147.28C689.182 148.72 691.289 150.8 692.782 153.52C694.222 150.96 696.302 148.907 699.022 147.36C701.795 145.813 704.782 145.04 707.982 145.04Z" fill="#333333"/>
</g>
<defs>
<clipPath id="clip0_24_2">
<rect width="732" height="262" fill="white"/>
</clipPath>
</defs>
</svg>
