<svg width="38" height="46" viewBox="0 0 38 46" fill="none" xmlns="http://www.w3.org/2000/svg">
<g filter="url(#filter0_d_82_7)">
<path fill-rule="evenodd" clip-rule="evenodd" d="M7 34V7C7 5.93913 7.42143 4.92172 8.17157 4.17157C8.92172 3.42143 9.93913 3 11 3H27C28.0609 3 29.0783 3.42143 29.8284 4.17157C30.5786 4.92172 31 5.93913 31 7V34C31.0001 34.1737 30.955 34.3443 30.8692 34.4953C30.7833 34.6462 30.6596 34.7722 30.5102 34.8608C30.3609 34.9494 30.191 34.9976 30.0174 35.0006C29.8438 35.0036 29.6723 34.9614 29.52 34.878L19 29.138L8.48 34.878C8.32766 34.9614 8.15624 35.0036 7.98261 35.0006C7.80898 34.9976 7.63913 34.9494 7.48978 34.8608C7.34043 34.7722 7.21673 34.6462 7.13085 34.4953C7.04497 34.3443 6.99987 34.1737 7 34ZM24.708 14.708C24.8958 14.5202 25.0013 14.2656 25.0013 14C25.0013 13.7344 24.8958 13.4798 24.708 13.292C24.5202 13.1042 24.2656 12.9987 24 12.9987C23.7344 12.9987 23.4798 13.1042 23.292 13.292L18 18.586L15.708 16.292C15.615 16.199 15.5046 16.1253 15.3832 16.075C15.2617 16.0246 15.1315 15.9987 15 15.9987C14.8685 15.9987 14.7383 16.0246 14.6168 16.075C14.4954 16.1253 14.385 16.199 14.292 16.292C14.199 16.385 14.1253 16.4954 14.075 16.6168C14.0246 16.7383 13.9987 16.8685 13.9987 17C13.9987 17.1315 14.0246 17.2617 14.075 17.3832C14.1253 17.5046 14.199 17.615 14.292 17.708L17.292 20.708C17.3849 20.8011 17.4952 20.875 17.6167 20.9254C17.7382 20.9758 17.8685 21.0018 18 21.0018C18.1315 21.0018 18.2618 20.9758 18.3833 20.9254C18.5048 20.875 18.6151 20.8011 18.708 20.708L24.708 14.708Z" fill="white"/>
</g>
<defs>
<filter id="filter0_d_82_7" x="0" y="0" width="38" height="46.0007" filterUnits="userSpaceOnUse" color-interpolation-filters="sRGB">
<feFlood flood-opacity="0" result="BackgroundImageFix"/>
<feColorMatrix in="SourceAlpha" type="matrix" values="0 0 0 0 0 0 0 0 0 0 0 0 0 0 0 0 0 0 127 0" result="hardAlpha"/>
<feOffset dy="4"/>
<feGaussianBlur stdDeviation="3.5"/>
<feComposite in2="hardAlpha" operator="out"/>
<feColorMatrix type="matrix" values="0 0 0 0 0.2 0 0 0 0 0.2 0 0 0 0 0.2 0 0 0 0.25 0"/>
<feBlend mode="normal" in2="BackgroundImageFix" result="effect1_dropShadow_82_7"/>
<feBlend mode="normal" in="SourceGraphic" in2="effect1_dropShadow_82_7" result="shape"/>
</filter>
</defs>
</svg>
