<svg width="46" height="46" viewBox="0 0 46 46" fill="none" xmlns="http://www.w3.org/2000/svg">
<g filter="url(#filter0_d_82_6)">
<path d="M23 35C19.6458 35 16.5938 34.0312 13.8438 32.0938C13.1146 32.9896 12.1458 33.6979 10.9375 34.2188C9.72917 34.7396 8.41667 35 7 35C7.52083 35 7.97396 34.2031 8.35938 32.6094C8.74479 31.0156 8.95833 29.0521 9 26.7188C7.66667 24.3229 7 21.75 7 19C7 16.1042 7.71354 13.4271 9.14062 10.9688C10.5677 8.51042 12.5104 6.56771 14.9688 5.14062C17.4271 3.71354 20.1042 3 23 3C25.8958 3 28.5729 3.71354 31.0312 5.14062C33.4896 6.56771 35.4323 8.51042 36.8594 10.9688C38.2865 13.4271 39 16.1042 39 19C39 21.8958 38.2865 24.5729 36.8594 27.0312C35.4323 29.4896 33.4896 31.4323 31.0312 32.8594C28.5729 34.2865 25.8958 35 23 35ZM17.0156 17C16.4635 17 15.9896 17.1927 15.5938 17.5781C15.1979 17.9635 15 18.4375 15 19C15 19.5625 15.1979 20.0365 15.5938 20.4219C15.9896 20.8073 16.4635 21 17.0156 21C17.5677 21 18.0365 20.8021 18.4219 20.4062C18.8073 20.0104 19 19.5417 19 19C19 18.4583 18.8073 17.9896 18.4219 17.5938C18.0365 17.1979 17.5677 17 17.0156 17ZM23.0156 17C22.4635 17 21.9896 17.1927 21.5938 17.5781C21.1979 17.9635 21 18.4323 21 18.9844C21 19.5365 21.1979 20.0104 21.5938 20.4062C21.9896 20.8021 22.4635 21 23.0156 21C23.5677 21 24.0365 20.8073 24.4219 20.4219C24.8073 20.0365 25 19.5625 25 19C25 18.4375 24.8073 17.9635 24.4219 17.5781C24.0365 17.1927 23.5677 17 23.0156 17ZM29.0156 17C28.4635 17 27.9896 17.1979 27.5938 17.5938C27.1979 17.9896 27 18.4583 27 19C27 19.5417 27.1979 20.0104 27.5938 20.4062C27.9896 20.8021 28.4635 21 29.0156 21C29.5677 21 30.0365 20.8021 30.4219 20.4062C30.8073 20.0104 31 19.5417 31 19C31 18.4583 30.8073 17.9896 30.4219 17.5938C30.0365 17.1979 29.5677 17 29.0156 17Z" fill="white"/>
</g>
<defs>
<filter id="filter0_d_82_6" x="0" y="0" width="46" height="46" filterUnits="userSpaceOnUse" color-interpolation-filters="sRGB">
<feFlood flood-opacity="0" result="BackgroundImageFix"/>
<feColorMatrix in="SourceAlpha" type="matrix" values="0 0 0 0 0 0 0 0 0 0 0 0 0 0 0 0 0 0 127 0" result="hardAlpha"/>
<feOffset dy="4"/>
<feGaussianBlur stdDeviation="3.5"/>
<feComposite in2="hardAlpha" operator="out"/>
<feColorMatrix type="matrix" values="0 0 0 0 0.2 0 0 0 0 0.2 0 0 0 0 0.2 0 0 0 0.25 0"/>
<feBlend mode="normal" in2="BackgroundImageFix" result="effect1_dropShadow_82_6"/>
<feBlend mode="normal" in="SourceGraphic" in2="effect1_dropShadow_82_6" result="shape"/>
</filter>
</defs>
</svg>
