<svg width="46" height="46" viewBox="0 0 46 46" fill="none" xmlns="http://www.w3.org/2000/svg">
<g filter="url(#filter0_d_82_4)">
<path d="M39 14.52C39 14.8667 38.8869 15.1667 38.6607 15.42L29.5179 25.66C29.2917 25.9133 29.0238 26.04 28.7143 26.04C28.4048 26.04 28.1369 25.9133 27.9107 25.66C27.6845 25.4067 27.5714 25.1067 27.5714 24.76V19.64H23.5714C22.4048 19.64 21.3601 19.68 20.4375 19.76C19.5149 19.84 18.5982 19.9833 17.6875 20.19C16.7768 20.3967 15.9851 20.68 15.3125 21.04C14.6399 21.4 14.0119 21.8633 13.4286 22.43C12.8452 22.9967 12.369 23.67 12 24.45C11.631 25.23 11.3423 26.1533 11.1339 27.22C10.9256 28.2867 10.8214 29.4933 10.8214 30.84C10.8214 31.5733 10.8512 32.3933 10.9107 33.3C10.9107 33.38 10.9256 33.5367 10.9554 33.77C10.9851 34.0033 11 34.18 11 34.3C11 34.5 10.9494 34.6667 10.8482 34.8C10.747 34.9333 10.6071 35 10.4286 35C10.2381 35 10.0714 34.8867 9.92857 34.66C9.84524 34.54 9.76786 34.3933 9.69643 34.22C9.625 34.0467 9.54464 33.8467 9.45536 33.62C9.36607 33.3933 9.30357 33.2333 9.26786 33.14C7.75595 29.34 7 26.3333 7 24.12C7 21.4667 7.31548 19.2467 7.94643 17.46C9.875 12.0867 15.0833 9.4 23.5714 9.4H27.5714V4.28C27.5714 3.93333 27.6845 3.63333 27.9107 3.38C28.1369 3.12667 28.4048 3 28.7143 3C29.0238 3 29.2917 3.12667 29.5179 3.38L38.6607 13.62C38.8869 13.8733 39 14.1733 39 14.52Z" fill="white"/>
</g>
<defs>
<filter id="filter0_d_82_4" x="0" y="0" width="46" height="46" filterUnits="userSpaceOnUse" color-interpolation-filters="sRGB">
<feFlood flood-opacity="0" result="BackgroundImageFix"/>
<feColorMatrix in="SourceAlpha" type="matrix" values="0 0 0 0 0 0 0 0 0 0 0 0 0 0 0 0 0 0 127 0" result="hardAlpha"/>
<feOffset dy="4"/>
<feGaussianBlur stdDeviation="3.5"/>
<feComposite in2="hardAlpha" operator="out"/>
<feColorMatrix type="matrix" values="0 0 0 0 0.2 0 0 0 0 0.2 0 0 0 0 0.2 0 0 0 0.25 0"/>
<feBlend mode="normal" in2="BackgroundImageFix" result="effect1_dropShadow_82_4"/>
<feBlend mode="normal" in="SourceGraphic" in2="effect1_dropShadow_82_4" result="shape"/>
</filter>
</defs>
</svg>
